<?xml version="1.0" encoding="utf-8"?>
<!-- Generator: Adobe Illustrator 16.0.3, SVG Export Plug-In . SVG Version: 6.00 Build 0)  -->
<!DOCTYPE svg PUBLIC "-//W3C//DTD SVG 1.1//EN" "http://www.w3.org/Graphics/SVG/1.1/DTD/svg11.dtd">
<svg version="1.1" xmlns="http://www.w3.org/2000/svg" xmlns:xlink="http://www.w3.org/1999/xlink" x="0px" y="0px" width="106.3px"
	 height="117.64px" viewBox="0 0 106.3 117.64" enable-background="new 0 0 106.3 117.64" xml:space="preserve">
<g id="图层_3">
	<rect fill="#000D10" stroke="#001B22" stroke-miterlimit="10" width="106.3" height="117.64"/>
</g>
<g id="led">
	<g>
		<g>
			<circle fill="#FFFFFF" stroke="#E72C27" stroke-miterlimit="10" cx="8.504" cy="14.173" r="4.252"/>
			<circle fill="#FFFFFF" stroke="#E72C27" stroke-miterlimit="10" cx="21.26" cy="14.173" r="4.252"/>
			<circle fill="#FFFFFF" stroke="#E72C27" stroke-miterlimit="10" cx="21.26" cy="14.173" r="4.252"/>
			<circle fill="#FFFFFF" stroke="#E72C27" stroke-miterlimit="10" cx="34.015" cy="14.173" r="4.252"/>
			<circle fill="#FFFFFF" stroke="#E72C27" stroke-miterlimit="10" cx="46.771" cy="14.173" r="4.252"/>
			<circle fill="#FFFFFF" stroke="#E72C27" stroke-miterlimit="10" cx="59.527" cy="14.173" r="4.252"/>
			<circle fill="#FFFFFF" stroke="#E72C27" stroke-miterlimit="10" cx="72.283" cy="14.173" r="4.252"/>
			<circle fill="#FFFFFF" stroke="#E72C27" stroke-miterlimit="10" cx="85.039" cy="14.173" r="4.252"/>
			<circle fill="#FFFFFF" stroke="#E72C27" stroke-miterlimit="10" cx="97.795" cy="14.173" r="4.252"/>
		</g>
		<g>
			<circle fill="#FFFFFF" stroke="#E72C27" stroke-miterlimit="10" cx="8.504" cy="26.929" r="4.252"/>
			<circle fill="#FFFFFF" stroke="#E72C27" stroke-miterlimit="10" cx="21.26" cy="26.929" r="4.252"/>
			<circle fill="#FFFFFF" stroke="#E72C27" stroke-miterlimit="10" cx="21.26" cy="26.929" r="4.252"/>
			<circle fill="#FFFFFF" stroke="#E72C27" stroke-miterlimit="10" cx="34.015" cy="26.929" r="4.252"/>
			<circle fill="#FFFFFF" stroke="#E72C27" stroke-miterlimit="10" cx="46.771" cy="26.929" r="4.252"/>
			<circle fill="#FFFFFF" stroke="#E72C27" stroke-miterlimit="10" cx="59.527" cy="26.929" r="4.252"/>
			<circle fill="#FFFFFF" stroke="#E72C27" stroke-miterlimit="10" cx="72.283" cy="26.929" r="4.252"/>
			<circle fill="#FFFFFF" stroke="#E72C27" stroke-miterlimit="10" cx="85.039" cy="26.929" r="4.252"/>
			<circle fill="#FFFFFF" stroke="#E72C27" stroke-miterlimit="10" cx="97.795" cy="26.929" r="4.252"/>
		</g>
		<g>
			<circle fill="#FFFFFF" stroke="#E72C27" stroke-miterlimit="10" cx="8.504" cy="39.685" r="4.252"/>
			<circle fill="#FFFFFF" stroke="#E72C27" stroke-miterlimit="10" cx="21.26" cy="39.685" r="4.252"/>
			<circle fill="#FFFFFF" stroke="#E72C27" stroke-miterlimit="10" cx="21.26" cy="39.685" r="4.252"/>
			<circle fill="#FFFFFF" stroke="#E72C27" stroke-miterlimit="10" cx="34.015" cy="39.685" r="4.252"/>
			<circle fill="#FFFFFF" stroke="#E72C27" stroke-miterlimit="10" cx="46.771" cy="39.685" r="4.252"/>
			<circle fill="#FFFFFF" stroke="#E72C27" stroke-miterlimit="10" cx="59.527" cy="39.685" r="4.252"/>
			<circle fill="#FFFFFF" stroke="#E72C27" stroke-miterlimit="10" cx="72.283" cy="39.685" r="4.252"/>
			<circle fill="#FFFFFF" stroke="#E72C27" stroke-miterlimit="10" cx="85.039" cy="39.685" r="4.252"/>
			<circle fill="#FFFFFF" stroke="#E72C27" stroke-miterlimit="10" cx="97.795" cy="39.685" r="4.252"/>
		</g>
		<g>
			<circle fill="#FFFFFF" stroke="#E72C27" stroke-miterlimit="10" cx="8.504" cy="52.441" r="4.252"/>
			<circle fill="#FFFFFF" stroke="#E72C27" stroke-miterlimit="10" cx="21.26" cy="52.441" r="4.252"/>
			<circle fill="#FFFFFF" stroke="#E72C27" stroke-miterlimit="10" cx="21.26" cy="52.441" r="4.252"/>
			<circle fill="#FFFFFF" stroke="#E72C27" stroke-miterlimit="10" cx="34.015" cy="52.441" r="4.252"/>
			<circle fill="#FFFFFF" stroke="#E72C27" stroke-miterlimit="10" cx="46.771" cy="52.441" r="4.252"/>
			<circle fill="#FFFFFF" stroke="#E72C27" stroke-miterlimit="10" cx="59.527" cy="52.441" r="4.252"/>
			<circle fill="#FFFFFF" stroke="#E72C27" stroke-miterlimit="10" cx="72.283" cy="52.441" r="4.252"/>
			<circle fill="#FFFFFF" stroke="#E72C27" stroke-miterlimit="10" cx="85.039" cy="52.441" r="4.252"/>
			<circle fill="#FFFFFF" stroke="#E72C27" stroke-miterlimit="10" cx="97.795" cy="52.441" r="4.252"/>
		</g>
		<g>
			<circle fill="#FFFFFF" stroke="#E72C27" stroke-miterlimit="10" cx="8.504" cy="65.197" r="4.252"/>
			<circle fill="#FFFFFF" stroke="#E72C27" stroke-miterlimit="10" cx="21.26" cy="65.197" r="4.252"/>
			<circle fill="#FFFFFF" stroke="#E72C27" stroke-miterlimit="10" cx="21.26" cy="65.197" r="4.252"/>
			<circle fill="#FFFFFF" stroke="#E72C27" stroke-miterlimit="10" cx="34.015" cy="65.197" r="4.252"/>
			<circle fill="#FFFFFF" stroke="#E72C27" stroke-miterlimit="10" cx="46.771" cy="65.197" r="4.252"/>
			<circle fill="#FFFFFF" stroke="#E72C27" stroke-miterlimit="10" cx="59.527" cy="65.197" r="4.252"/>
			<circle fill="#FFFFFF" stroke="#E72C27" stroke-miterlimit="10" cx="72.283" cy="65.197" r="4.252"/>
			<circle fill="#FFFFFF" stroke="#E72C27" stroke-miterlimit="10" cx="85.039" cy="65.197" r="4.252"/>
			<circle fill="#FFFFFF" stroke="#E72C27" stroke-miterlimit="10" cx="97.795" cy="65.197" r="4.252"/>
		</g>
		<g>
			<circle fill="#FFFFFF" stroke="#E72C27" stroke-miterlimit="10" cx="8.504" cy="77.953" r="4.252"/>
			<circle fill="#FFFFFF" stroke="#E72C27" stroke-miterlimit="10" cx="21.26" cy="77.953" r="4.252"/>
			<circle fill="#FFFFFF" stroke="#E72C27" stroke-miterlimit="10" cx="21.26" cy="77.953" r="4.252"/>
			<circle fill="#FFFFFF" stroke="#E72C27" stroke-miterlimit="10" cx="34.015" cy="77.953" r="4.252"/>
			<circle fill="#FFFFFF" stroke="#E72C27" stroke-miterlimit="10" cx="46.771" cy="77.953" r="4.252"/>
			<circle fill="#FFFFFF" stroke="#E72C27" stroke-miterlimit="10" cx="59.527" cy="77.953" r="4.252"/>
			<circle fill="#FFFFFF" stroke="#E72C27" stroke-miterlimit="10" cx="72.283" cy="77.953" r="4.252"/>
			<circle fill="#FFFFFF" stroke="#E72C27" stroke-miterlimit="10" cx="85.039" cy="77.953" r="4.252"/>
			<circle fill="#FFFFFF" stroke="#E72C27" stroke-miterlimit="10" cx="97.795" cy="77.953" r="4.252"/>
		</g>
		<g>
			<circle fill="#FFFFFF" stroke="#E72C27" stroke-miterlimit="10" cx="8.504" cy="90.709" r="4.252"/>
			<circle fill="#FFFFFF" stroke="#E72C27" stroke-miterlimit="10" cx="21.26" cy="90.709" r="4.252"/>
			<circle fill="#FFFFFF" stroke="#E72C27" stroke-miterlimit="10" cx="21.26" cy="90.709" r="4.252"/>
			<circle fill="#FFFFFF" stroke="#E72C27" stroke-miterlimit="10" cx="34.015" cy="90.709" r="4.252"/>
			<circle fill="#FFFFFF" stroke="#E72C27" stroke-miterlimit="10" cx="46.771" cy="90.709" r="4.252"/>
			<circle fill="#FFFFFF" stroke="#E72C27" stroke-miterlimit="10" cx="59.527" cy="90.709" r="4.252"/>
			<circle fill="#FFFFFF" stroke="#E72C27" stroke-miterlimit="10" cx="72.283" cy="90.709" r="4.252"/>
			<circle fill="#FFFFFF" stroke="#E72C27" stroke-miterlimit="10" cx="85.039" cy="90.709" r="4.252"/>
			<circle fill="#FFFFFF" stroke="#E72C27" stroke-miterlimit="10" cx="97.795" cy="90.709" r="4.252"/>
		</g>
		<g>
			<circle fill="#FFFFFF" stroke="#E72C27" stroke-miterlimit="10" cx="8.504" cy="103.465" r="4.252"/>
			<circle fill="#FFFFFF" stroke="#E72C27" stroke-miterlimit="10" cx="21.26" cy="103.465" r="4.252"/>
			<circle fill="#FFFFFF" stroke="#E72C27" stroke-miterlimit="10" cx="21.26" cy="103.465" r="4.252"/>
			<circle fill="#FFFFFF" stroke="#E72C27" stroke-miterlimit="10" cx="34.015" cy="103.465" r="4.252"/>
			<circle fill="#FFFFFF" stroke="#E72C27" stroke-miterlimit="10" cx="46.771" cy="103.465" r="4.252"/>
			<circle fill="#FFFFFF" stroke="#E72C27" stroke-miterlimit="10" cx="59.527" cy="103.465" r="4.252"/>
			<circle fill="#FFFFFF" stroke="#E72C27" stroke-miterlimit="10" cx="72.283" cy="103.465" r="4.252"/>
			<circle fill="#FFFFFF" stroke="#E72C27" stroke-miterlimit="10" cx="85.039" cy="103.465" r="4.252"/>
			<circle fill="#FFFFFF" stroke="#E72C27" stroke-miterlimit="10" cx="97.795" cy="103.465" r="4.252"/>
		</g>
	</g>
</g>
<g id="pin">
	<g>
		<rect x="27.091" y="112.543" fill="#2FB1E7" stroke="#2CAFE6" stroke-miterlimit="10" width="1.417" height="1.418"/>
		<rect x="34.292" y="112.543" fill="#2FB1E7" stroke="#2CAFE6" stroke-miterlimit="10" width="1.417" height="1.418"/>
		<rect x="41.492" y="112.543" fill="#2FB1E7" stroke="#2CAFE6" stroke-miterlimit="10" width="1.417" height="1.418"/>
		<rect x="48.692" y="112.543" fill="#2FB1E7" stroke="#2CAFE6" stroke-miterlimit="10" width="1.417" height="1.418"/>
		<rect x="55.893" y="112.543" fill="#2FB1E7" stroke="#2CAFE6" stroke-miterlimit="10" width="1.417" height="1.418"/>
		<rect x="63.093" y="112.543" fill="#2FB1E7" stroke="#2CAFE6" stroke-miterlimit="10" width="1.417" height="1.418"/>
		<rect x="70.293" y="112.543" fill="#2FB1E7" stroke="#2CAFE6" stroke-miterlimit="10" width="1.417" height="1.418"/>
		<rect x="77.493" y="112.543" fill="#2FB1E7" stroke="#2CAFE6" stroke-miterlimit="10" width="1.417" height="1.418"/>
	</g>
	<g>
		<rect x="27.091" y="3.543" fill="#2FB1E7" stroke="#2CAFE6" stroke-miterlimit="10" width="1.417" height="1.417"/>
		<rect x="34.292" y="3.543" fill="#2FB1E7" stroke="#2CAFE6" stroke-miterlimit="10" width="1.417" height="1.417"/>
		<rect x="41.492" y="3.543" fill="#2FB1E7" stroke="#2CAFE6" stroke-miterlimit="10" width="1.417" height="1.417"/>
		<rect x="48.692" y="3.543" fill="#2FB1E7" stroke="#2CAFE6" stroke-miterlimit="10" width="1.417" height="1.417"/>
		<rect x="55.893" y="3.543" fill="#2FB1E7" stroke="#2CAFE6" stroke-miterlimit="10" width="1.417" height="1.417"/>
		<rect x="63.093" y="3.543" fill="#2FB1E7" stroke="#2CAFE6" stroke-miterlimit="10" width="1.417" height="1.417"/>
		<rect x="70.293" y="3.543" fill="#2FB1E7" stroke="#2CAFE6" stroke-miterlimit="10" width="1.417" height="1.417"/>
		<rect x="77.493" y="3.543" fill="#2FB1E7" stroke="#2CAFE6" stroke-miterlimit="10" width="1.417" height="1.417"/>
	</g>
</g>
</svg>
